<svg xmlns="http://www.w3.org/2000/svg" width="184" height="184" fill="none" class="hero__icon lg"><g filter="url(#a)"><circle cx="91.729" cy="88.002" r="64.002" fill="#003354"/><g filter="url(#b)"><circle cx="91.729" cy="86.771" r="43.078" fill="#fff"/><g filter="url(#c)"><circle cx="91.5" cy="87.5" r="30.5" fill="#fff"/></g></g><path fill="#51C975" d="M71.478 84.32v-2.695h4.696V94h-3.018v-9.68h-1.678Zm6.34 3.323c0-1.944.373-3.476 1.118-4.594.758-1.12 1.973-1.679 3.645-1.679 1.673 0 2.882.56 3.628 1.679.757 1.118 1.136 2.65 1.136 4.594 0 1.966-.379 3.509-1.136 4.628-.746 1.119-1.955 1.678-3.628 1.678-1.672 0-2.887-.56-3.645-1.678-.745-1.12-1.118-2.662-1.118-4.628Zm6.679 0c0-1.142-.124-2.018-.373-2.628-.249-.621-.763-.932-1.543-.932-.78 0-1.294.31-1.542.932-.249.61-.373 1.486-.373 2.628 0 .768.045 1.407.135 1.915.09.498.272.904.543 1.221.282.305.695.458 1.237.458.543 0 .95-.153 1.22-.458.283-.316.47-.723.56-1.22.09-.51.136-1.148.136-1.916Zm4.04 0c0-1.944.373-3.476 1.12-4.594.757-1.12 1.972-1.679 3.644-1.679 1.673 0 2.882.56 3.628 1.679.757 1.118 1.136 2.65 1.136 4.594 0 1.966-.379 3.509-1.136 4.628-.746 1.119-1.955 1.678-3.628 1.678-1.672 0-2.887-.56-3.645-1.678-.746-1.12-1.119-2.662-1.119-4.628Zm6.68 0c0-1.142-.124-2.018-.373-2.628-.249-.621-.763-.932-1.543-.932-.78 0-1.294.31-1.543.932-.248.61-.372 1.486-.372 2.628 0 .768.045 1.407.135 1.915.09.498.271.904.543 1.221.282.305.695.458 1.237.458.543 0 .95-.153 1.22-.458.283-.316.47-.723.56-1.22.09-.51.136-1.148.136-1.916Zm3.803-2.9c0-.915.26-1.621.78-2.118.531-.498 1.215-.746 2.051-.746.837 0 1.515.248 2.035.746.519.497.779 1.203.779 2.119 0 .915-.26 1.622-.779 2.119-.52.497-1.198.746-2.035.746-.836 0-1.52-.249-2.051-.746-.52-.497-.78-1.204-.78-2.12Zm11.511-2.678L104.004 94h-2.797l6.527-11.935h2.797Zm-8.697 1.51c-.542 0-.813.389-.813 1.169 0 .768.271 1.153.813 1.153.26 0 .464-.097.611-.289.146-.192.22-.48.22-.864 0-.78-.277-1.17-.831-1.17Zm5.256 7.746c0-.915.26-1.621.779-2.119.52-.497 1.198-.745 2.035-.745.836 0 1.514.248 2.034.745.52.498.78 1.204.78 2.12 0 .915-.26 1.621-.78 2.119-.52.497-1.198.745-2.034.745-.837 0-1.515-.248-2.035-.745-.519-.498-.779-1.204-.779-2.12Zm2.797-1.17a.724.724 0 0 0-.61.289c-.136.192-.204.486-.204.882 0 .768.271 1.152.814 1.152.26 0 .463-.096.61-.288.147-.192.22-.48.22-.865 0-.384-.073-.672-.22-.864a.71.71 0 0 0-.61-.305Z"/><circle cx="91.729" cy="86.771" r="57.848" stroke="#51C975" stroke-width="30.77"/></g><defs><filter id="a" width="183.39" height="183.39" x=".034" y="-.001" color-interpolation-filters="sRGB" filterUnits="userSpaceOnUse"><feFlood flood-opacity="0" result="BackgroundImageFix"/><feColorMatrix in="SourceAlpha" result="hardAlpha" values="0 0 0 0 0 0 0 0 0 0 0 0 0 0 0 0 0 0 127 0"/><feOffset dy="4.923"/><feGaussianBlur stdDeviation="9.231"/><feColorMatrix values="0 0 0 0 0.491667 0 0 0 0 0.491667 0 0 0 0 0.491667 0 0 0 0.25 0"/><feBlend in2="BackgroundImageFix" result="effect1_dropShadow_708_22251"/><feBlend in="SourceGraphic" in2="effect1_dropShadow_708_22251" result="shape"/></filter><filter id="b" width="100.926" height="100.926" x="41.266" y="38.77" color-interpolation-filters="sRGB" filterUnits="userSpaceOnUse"><feFlood flood-opacity="0" result="BackgroundImageFix"/><feColorMatrix in="SourceAlpha" result="hardAlpha" values="0 0 0 0 0 0 0 0 0 0 0 0 0 0 0 0 0 0 127 0"/><feOffset dy="2.462"/><feGaussianBlur stdDeviation="3.692"/><feColorMatrix values="0 0 0 0 0.383333 0 0 0 0 0.383333 0 0 0 0 0.383333 0 0 0 0.25 0"/><feBlend in2="BackgroundImageFix" result="effect1_dropShadow_708_22251"/><feBlend in="SourceGraphic" in2="effect1_dropShadow_708_22251" result="shape"/></filter><filter id="c" width="95.857" height="95.857" x="43.571" y="41.75" color-interpolation-filters="sRGB" filterUnits="userSpaceOnUse"><feFlood flood-opacity="0" result="BackgroundImageFix"/><feColorMatrix in="SourceAlpha" result="hardAlpha" values="0 0 0 0 0 0 0 0 0 0 0 0 0 0 0 0 0 0 127 0"/><feOffset dy="2.179"/><feGaussianBlur stdDeviation="8.714"/><feColorMatrix values="0 0 0 0 0.5625 0 0 0 0 0.5625 0 0 0 0 0.5625 0 0 0 0.25 0"/><feBlend in2="BackgroundImageFix" result="effect1_dropShadow_708_22251"/><feBlend in="SourceGraphic" in2="effect1_dropShadow_708_22251" result="shape"/></filter></defs></svg>