<svg xmlns="http://www.w3.org/2000/svg" width="118" height="125" fill="none" class="hero__icon sm"><g filter="url(#a)"><circle cx="56.018" cy="60.018" r="43.018" fill="#003354"/><path stroke="#EF5D4F" stroke-width="20.682" d="M55.996 98.072c21.465 0 38.867-17.408 38.867-38.882 0-21.473-17.402-38.881-38.867-38.881"/><g filter="url(#b)"><circle cx="56.017" cy="59.191" r="28.954" fill="#fff"/><g filter="url(#c)"><circle cx="55" cy="59" r="20" fill="#fff"/></g></g><path fill="#9B9B9B" d="M44.607 61.296v-1.32l3.924-5.616h1.956v5.472h1.056v1.464h-1.056V63h-1.68v-1.704h-4.2Zm4.308-5.136-2.46 3.672h2.46V56.16Zm5.401 4.38c.064.352.208.624.432.816.232.184.54.276.924.276.496 0 .856-.204 1.08-.612.224-.416.336-1.112.336-2.088a1.81 1.81 0 0 1-.78.6 2.627 2.627 0 0 1-1.068.216c-.512 0-.976-.104-1.392-.312a2.408 2.408 0 0 1-.972-.948c-.24-.424-.36-.936-.36-1.536 0-.888.264-1.592.792-2.112.528-.528 1.248-.792 2.16-.792 1.136 0 1.936.364 2.4 1.092.472.728.708 1.824.708 3.288 0 1.04-.092 1.892-.276 2.556-.176.664-.484 1.168-.924 1.512-.432.344-1.024.516-1.776.516-.592 0-1.096-.112-1.512-.336a2.545 2.545 0 0 1-.96-.9 2.857 2.857 0 0 1-.372-1.236h1.56Zm1.272-2.16c.416 0 .744-.128.984-.384s.36-.6.36-1.032c0-.472-.128-.836-.384-1.092-.248-.264-.588-.396-1.02-.396-.432 0-.776.136-1.032.408-.248.264-.372.616-.372 1.056 0 .424.12.772.36 1.044.248.264.616.396 1.104.396Zm3.864-1.98c0-.608.176-1.084.528-1.428.36-.344.82-.516 1.38-.516.56 0 1.016.172 1.368.516.36.344.54.82.54 1.428 0 .616-.18 1.096-.54 1.44-.352.344-.808.516-1.368.516s-1.02-.172-1.38-.516c-.352-.344-.528-.824-.528-1.44Zm7.704-1.8L62.44 63h-1.632l4.704-8.4h1.644Zm-5.808.864c-.44 0-.66.312-.66.936 0 .632.22.948.66.948a.606.606 0 0 0 .504-.228c.12-.16.18-.4.18-.72 0-.624-.228-.936-.684-.936Zm3.372 5.724c0-.616.176-1.092.528-1.428.36-.344.82-.516 1.38-.516.56 0 1.012.172 1.356.516.352.336.528.812.528 1.428 0 .616-.176 1.096-.528 1.44-.344.344-.796.516-1.356.516-.568 0-1.028-.172-1.38-.516-.352-.344-.528-.824-.528-1.44Zm1.896-.936c-.456 0-.684.312-.684.936 0 .632.228.948.684.948.448 0 .672-.316.672-.948 0-.624-.224-.936-.672-.936Z"/></g><defs><filter id="a" width="117.021" height="123.262" x=".591" y=".868" color-interpolation-filters="sRGB" filterUnits="userSpaceOnUse"><feFlood flood-opacity="0" result="BackgroundImageFix"/><feColorMatrix in="SourceAlpha" result="hardAlpha" values="0 0 0 0 0 0 0 0 0 0 0 0 0 0 0 0 0 0 127 0"/><feOffset dy="3.309"/><feGaussianBlur stdDeviation="6.204"/><feColorMatrix values="0 0 0 0 0.491667 0 0 0 0 0.491667 0 0 0 0 0.491667 0 0 0 0.25 0"/><feBlend in2="BackgroundImageFix" result="effect1_dropShadow_708_22237"/><feBlend in="SourceGraphic" in2="effect1_dropShadow_708_22237" result="shape"/></filter><filter id="b" width="67.836" height="67.836" x="22.1" y="26.927" color-interpolation-filters="sRGB" filterUnits="userSpaceOnUse"><feFlood flood-opacity="0" result="BackgroundImageFix"/><feColorMatrix in="SourceAlpha" result="hardAlpha" values="0 0 0 0 0 0 0 0 0 0 0 0 0 0 0 0 0 0 127 0"/><feOffset dy="1.655"/><feGaussianBlur stdDeviation="2.482"/><feColorMatrix values="0 0 0 0 0.383333 0 0 0 0 0.383333 0 0 0 0 0.383333 0 0 0 0.25 0"/><feBlend in2="BackgroundImageFix" result="effect1_dropShadow_708_22237"/><feBlend in="SourceGraphic" in2="effect1_dropShadow_708_22237" result="shape"/></filter><filter id="c" width="62.857" height="62.857" x="23.571" y="29" color-interpolation-filters="sRGB" filterUnits="userSpaceOnUse"><feFlood flood-opacity="0" result="BackgroundImageFix"/><feColorMatrix in="SourceAlpha" result="hardAlpha" values="0 0 0 0 0 0 0 0 0 0 0 0 0 0 0 0 0 0 127 0"/><feOffset dy="1.429"/><feGaussianBlur stdDeviation="5.714"/><feColorMatrix values="0 0 0 0 0.5625 0 0 0 0 0.5625 0 0 0 0 0.5625 0 0 0 0.25 0"/><feBlend in2="BackgroundImageFix" result="effect1_dropShadow_708_22237"/><feBlend in="SourceGraphic" in2="effect1_dropShadow_708_22237" result="shape"/></filter></defs></svg>