<svg xmlns="http://www.w3.org/2000/svg" width="159" height="159" fill="none" class="hero__icon md"><g filter="url(#a)"><circle cx="79.381" cy="76.346" r="55.346" fill="#003354"/><path stroke="#F4A940" stroke-width="26.609" d="M79.353 25.257c27.617 0 50.006 22.397 50.006 50.024 0 27.628-22.389 50.025-50.006 50.025-27.618 0-50.006-22.397-50.006-50.025-.276-4.685.909-16.454 7.852-26.045"/><g filter="url(#b)"><circle cx="79.381" cy="75.282" r="37.252" fill="#fff"/><g filter="url(#c)"><circle cx="79.26" cy="74.26" r="23.26" fill="#fff"/></g></g><path fill="#9B9B9B" d="M69.172 73.368c-.8-.416-1.2-1.06-1.2-1.932 0-.432.108-.824.324-1.176.224-.36.556-.644.996-.852.448-.216.992-.324 1.632-.324.64 0 1.18.108 1.62.324.448.208.78.492.996.852.224.352.336.744.336 1.176 0 .44-.108.828-.324 1.164a2.23 2.23 0 0 1-.864.768c.44.192.784.472 1.032.84s.372.804.372 1.308c0 .544-.14 1.02-.42 1.428-.272.4-.648.708-1.128.924-.48.216-1.02.324-1.62.324-.6 0-1.14-.108-1.62-.324a2.733 2.733 0 0 1-1.128-.924c-.272-.408-.408-.884-.408-1.428 0-.504.124-.94.372-1.308a2.235 2.235 0 0 1 1.032-.84Zm3.072-1.692c0-.392-.12-.696-.36-.912-.232-.216-.552-.324-.96-.324-.4 0-.72.108-.96.324-.232.216-.348.524-.348.924 0 .36.12.648.36.864.248.216.564.324.948.324s.7-.108.948-.324c.248-.224.372-.516.372-.876Zm-1.32 2.424c-.456 0-.828.116-1.116.348-.28.232-.42.564-.42.996 0 .4.136.728.408.984.28.248.656.372 1.128.372.472 0 .844-.128 1.116-.384.272-.256.408-.58.408-.972 0-.424-.14-.752-.42-.984-.28-.24-.648-.36-1.104-.36Zm8.791-2.664c-.08-.336-.22-.588-.42-.756-.192-.168-.472-.252-.84-.252-.552 0-.96.224-1.224.672-.256.44-.388 1.16-.396 2.16a1.91 1.91 0 0 1 .84-.744 2.646 2.646 0 0 1 1.2-.276c.52 0 .98.112 1.38.336.4.224.712.552.936.984.224.424.336.936.336 1.536 0 .568-.116 1.076-.348 1.524-.224.44-.556.784-.996 1.032-.44.248-.964.372-1.572.372-.832 0-1.488-.184-1.968-.552-.472-.368-.804-.88-.996-1.536-.184-.664-.276-1.48-.276-2.448 0-1.464.252-2.568.756-3.312.504-.752 1.3-1.128 2.388-1.128.84 0 1.492.228 1.956.684.464.456.732 1.024.804 1.704h-1.56Zm-1.224 2.184c-.424 0-.78.124-1.068.372-.288.248-.432.608-.432 1.08 0 .472.132.844.396 1.116.272.272.652.408 1.14.408.432 0 .772-.132 1.02-.396.256-.264.384-.62.384-1.068 0-.464-.124-.832-.372-1.104-.24-.272-.596-.408-1.068-.408Zm3.932-2.22c0-.608.176-1.084.528-1.428.36-.344.82-.516 1.38-.516.56 0 1.016.172 1.368.516.36.344.54.82.54 1.428 0 .616-.18 1.096-.54 1.44-.352.344-.808.516-1.368.516s-1.02-.172-1.38-.516c-.352-.344-.528-.824-.528-1.44Zm7.704-1.8L85.41 78h-1.632l4.704-8.4h1.644Zm-5.808.864c-.44 0-.66.312-.66.936 0 .632.22.948.66.948a.606.606 0 0 0 .504-.228c.12-.16.18-.4.18-.72 0-.624-.228-.936-.684-.936Zm3.372 5.724c0-.616.176-1.092.528-1.428.36-.344.82-.516 1.38-.516.56 0 1.012.172 1.356.516.352.336.528.812.528 1.428 0 .616-.176 1.096-.528 1.44-.344.344-.796.516-1.356.516-.568 0-1.028-.172-1.38-.516-.352-.344-.528-.824-.528-1.44Zm1.896-.936c-.456 0-.684.312-.684.936 0 .632.228.948.684.948.448 0 .672-.316.672-.948 0-.624-.224-.936-.672-.936Z"/></g><defs><filter id="a" width="158.585" height="158.587" x=".043" y=".245" color-interpolation-filters="sRGB" filterUnits="userSpaceOnUse"><feFlood flood-opacity="0" result="BackgroundImageFix"/><feColorMatrix in="SourceAlpha" result="hardAlpha" values="0 0 0 0 0 0 0 0 0 0 0 0 0 0 0 0 0 0 127 0"/><feOffset dy="4.257"/><feGaussianBlur stdDeviation="7.983"/><feColorMatrix values="0 0 0 0 0.491667 0 0 0 0 0.491667 0 0 0 0 0.491667 0 0 0 0.25 0"/><feBlend in2="BackgroundImageFix" result="effect1_dropShadow_708_22244"/><feBlend in="SourceGraphic" in2="effect1_dropShadow_708_22244" result="shape"/></filter><filter id="b" width="87.276" height="87.276" x="35.743" y="33.772" color-interpolation-filters="sRGB" filterUnits="userSpaceOnUse"><feFlood flood-opacity="0" result="BackgroundImageFix"/><feColorMatrix in="SourceAlpha" result="hardAlpha" values="0 0 0 0 0 0 0 0 0 0 0 0 0 0 0 0 0 0 127 0"/><feOffset dy="2.129"/><feGaussianBlur stdDeviation="3.193"/><feColorMatrix values="0 0 0 0 0.383333 0 0 0 0 0.383333 0 0 0 0 0.383333 0 0 0 0.25 0"/><feBlend in2="BackgroundImageFix" result="effect1_dropShadow_708_22244"/><feBlend in="SourceGraphic" in2="effect1_dropShadow_708_22244" result="shape"/></filter><filter id="c" width="73.102" height="73.102" x="42.708" y="39.37" color-interpolation-filters="sRGB" filterUnits="userSpaceOnUse"><feFlood flood-opacity="0" result="BackgroundImageFix"/><feColorMatrix in="SourceAlpha" result="hardAlpha" values="0 0 0 0 0 0 0 0 0 0 0 0 0 0 0 0 0 0 127 0"/><feOffset dy="1.661"/><feGaussianBlur stdDeviation="6.646"/><feColorMatrix values="0 0 0 0 0.5625 0 0 0 0 0.5625 0 0 0 0 0.5625 0 0 0 0.25 0"/><feBlend in2="BackgroundImageFix" result="effect1_dropShadow_708_22244"/><feBlend in="SourceGraphic" in2="effect1_dropShadow_708_22244" result="shape"/></filter></defs></svg>