<svg width="1306" height="363" fill="none" xmlns="http://www.w3.org/2000/svg"><g opacity=".11"><path d="m105.052 163.632 13.737-13.737 7.632 7.631L156.947 127" stroke="#2088DB" stroke-width="2" stroke-linecap="round" stroke-linejoin="round"/><path d="M140.158 127h16.79v16.789M138.631 169.737 153.894 185M144.27 150.031a21.37 21.37 0 1 1-7.629-12.304" stroke="#2088DB" stroke-width="2" stroke-linecap="round" stroke-linejoin="round"/><path d="M138 262h-32c-2.2 0-3.98 1.8-3.98 4l-.02 36 8-8h28c2.2 0 4-1.8 4-4v-24c0-2.2-1.8-4-4-4Zm-4 24h-24v-4h24v4Zm0-6h-24v-4h24v4Zm0-6h-24v-4h24v4Z" fill="#2088DB"/><path stroke="#2088DB" stroke-width="2" stroke-linecap="round" stroke-linejoin="round" d="M288.2 229h11.6v11.6h-11.6zM269 260.2h11.6v11.6H269z"/><path d="M312.2 258.8a1 1 0 0 0 2 0h-2Zm-36.4 0v-6.7h-2v6.7h2Zm-.5-6.2h37.4v-2h-37.4v2Zm36.9-.5v6.7h2v-6.7h-2Zm.5.5a.5.5 0 0 1-.5-.5h2a1.5 1.5 0 0 0-1.5-1.5v2Zm-36.9-.5a.5.5 0 0 1-.5.5v-2a1.5 1.5 0 0 0-1.5 1.5h2Z" fill="#2088DB"/><path stroke="#2088DB" stroke-width="2" stroke-linecap="round" stroke-linejoin="round" d="M288.2 260.2h11.6v11.6h-11.6zM307.4 260.2H319v11.6h-11.6z"/><path d="M294 242v16.8" stroke="#2088DB" stroke-width="2"/><path fill-rule="evenodd" clip-rule="evenodd" d="M1057.86 243.429a6.43 6.43 0 0 0 6.43-6.429 6.43 6.43 0 0 0-12.86 0c0 .927.19 1.807.55 2.603l-14.68 8.561a6.408 6.408 0 0 0-5.16-2.592 6.43 6.43 0 0 0-6.43 6.428 6.43 6.43 0 0 0 6.43 6.429c2.12 0 3.99-1.019 5.16-2.593l14.68 8.561a6.293 6.293 0 0 0-.55 2.603 6.43 6.43 0 0 0 12.86 0 6.43 6.43 0 0 0-6.43-6.428 6.408 6.408 0 0 0-5.16 2.592l-14.68-8.561a6.29 6.29 0 0 0 .55-2.603c0-.926-.19-1.807-.55-2.603l14.68-8.561a6.407 6.407 0 0 0 5.16 2.593Z" fill="#2088DB"/><rect x="1195" y="184" width="57" height="39.5" rx="3" stroke="#2088DB" stroke-width="2"/><path d="m1203.5 192.5 20 15 20-15" stroke="#2088DB" stroke-width="2" stroke-linecap="round" stroke-linejoin="round"/><mask id="a" maskUnits="userSpaceOnUse" x="1257" y="20" width="49" height="49" fill="#000"><path fill="#fff" d="M1257 20h49v49h-49z"/><path fill-rule="evenodd" clip-rule="evenodd" d="M1276.5 22h10v7.05c0 1.246 1.51 1.871 2.39.989l4.98-4.984 7.08 7.07-4.99 4.985c-.88.882-.26 2.39.99 2.39h7.05v10h-7.05c-1.25 0-1.87 1.508-.99 2.39l4.99 4.984-7.08 7.071-4.98-4.984c-.88-.882-2.39-.257-2.39.99V67h-10v-7.049c0-1.247-1.51-1.872-2.39-.99l-4.98 4.984-7.08-7.07 4.99-4.985c.88-.882.26-2.39-.99-2.39H1259v-10h7.05c1.25 0 1.87-1.508.99-2.39l-4.99-4.984 7.08-7.071 4.98 4.984c.88.882 2.39.257 2.39-.99V22Zm5 32.5c5.52 0 10-4.477 10-10s-4.48-10-10-10-10 4.477-10 10 4.48 10 10 10Z"/></mask><path d="M1286.5 22h2c0-1.105-.9-2-2-2v2Zm-10 0v-2c-1.1 0-2 .895-2 2h2Zm12.39 8.039-1.41-1.414 1.41 1.414Zm4.98-4.984 1.42-1.415a2.002 2.002 0 0 0-2.83 0l1.41 1.415Zm7.08 7.07 1.41 1.415c.37-.375.59-.884.59-1.414 0-.53-.22-1.04-.59-1.415l-1.41 1.415Zm-4.99 4.985-1.41-1.414 1.41 1.414Zm8.04 2.39h2c0-1.105-.9-2-2-2v2Zm0 10v2c1.1 0 2-.895 2-2h-2Zm-8.04 2.39 1.42-1.414-1.42 1.414Zm4.99 4.984 1.41 1.415c.78-.782.78-2.048 0-2.829l-1.41 1.414Zm-7.08 7.071-1.41 1.415c.78.78 2.05.78 2.83 0l-1.42-1.415Zm-4.98-4.984-1.41 1.414 1.41-1.414ZM1286.5 67v2c1.1 0 2-.895 2-2h-2Zm-10 0h-2c0 1.105.9 2 2 2v-2Zm-2.39-8.039-1.41-1.414 1.41 1.414Zm-4.98 4.984-1.42 1.415a2 2 0 0 0 2.83 0l-1.41-1.415Zm-7.08-7.07-1.41-1.415c-.37.375-.59.884-.59 1.414 0 .53.22 1.04.59 1.415l1.41-1.415Zm4.99-4.985 1.41 1.414-1.41-1.414ZM1259 49.5h-2c0 1.105.9 2 2 2v-2Zm0-10v-2c-1.1 0-2 .895-2 2h2Zm3.05-7.374-1.41-1.415a2.002 2.002 0 0 0 0 2.829l1.41-1.414Zm7.08-7.071 1.41-1.415a2.002 2.002 0 0 0-2.83 0l1.42 1.415ZM1286.5 20h-10v4h10v-4Zm2 9.05V22h-4v7.05h4Zm-1.02-.425c.37-.378 1.02-.11 1.02.424h-4c0 3.03 3.66 4.546 5.8 2.404l-2.82-2.828Zm4.98-4.985-4.98 4.985 2.82 2.828 4.99-4.984-2.83-2.829Zm9.9 7.071-7.07-7.07-2.83 2.828 7.07 7.07 2.83-2.828Zm-4.98 7.813 4.98-4.984-2.83-2.829-4.98 4.985 2.83 2.828Zm-.43-1.024c.54 0 .8.646.43 1.024l-2.83-2.828c-2.15 2.142-.63 5.804 2.4 5.804v-4Zm7.05 0h-7.05v4h7.05v-4Zm2 12v-10h-4v10h4Zm-9.05 2h7.05v-4h-7.05v4Zm.43-1.024a.602.602 0 0 1-.43 1.024v-4c-3.03 0-4.55 3.662-2.4 5.804l2.83-2.828Zm4.98 4.984-4.98-4.984-2.83 2.828 4.98 4.985 2.83-2.829Zm-7.07 9.9 7.07-7.071-2.83-2.829-7.07 7.071 2.83 2.829Zm-7.81-4.985 4.98 4.985 2.83-2.829-4.99-4.984-2.82 2.828Zm1.02-.424c0 .535-.65.802-1.02.424l2.82-2.828c-2.14-2.142-5.8-.625-5.8 2.404h4Zm0 7.049v-7.049h-4V67h4Zm-12 2h10v-4h-10v4Zm-2-9.049V67h4v-7.049h-4Zm1.02.424c-.37.378-1.02.11-1.02-.424h4c0-3.03-3.66-4.546-5.8-2.404l2.82 2.828Zm-4.98 4.985 4.98-4.985-2.82-2.828-4.99 4.984 2.83 2.829Zm-9.9-7.071 7.07 7.07 2.83-2.828-7.07-7.07-2.83 2.828Zm4.98-7.813-4.98 4.984 2.83 2.829 4.98-4.985-2.83-2.828Zm.43 1.024c-.54 0-.8-.646-.43-1.024l2.83 2.828c2.15-2.142.63-5.804-2.4-5.804v4Zm-7.05 0h7.05v-4H1259v4Zm-2-12v10h4v-10h-4Zm9.05-2H1259v4h7.05v-4Zm-.43 1.024a.602.602 0 0 1 .43-1.024v4c3.03 0 4.55-3.662 2.4-5.804l-2.83 2.828Zm-4.98-4.984 4.98 4.984 2.83-2.828-4.98-4.985-2.83 2.829Zm7.07-9.9-7.07 7.071 2.83 2.829 7.07-7.071-2.83-2.829Zm7.81 4.985-4.98-4.985-2.83 2.829 4.99 4.984 2.82-2.828Zm-1.02.424c0-.534.65-.802 1.02-.424l-2.82 2.828c2.14 2.142 5.8.625 5.8-2.404h-4Zm0-7.049v7.05h4V22h-4Zm15 22.5c0 4.418-3.58 8-8 8v4c6.63 0 12-5.372 12-12h-4Zm-8-8c4.42 0 8 3.582 8 8h4c0-6.627-5.37-12-12-12v4Zm-8 8c0-4.418 3.58-8 8-8v-4c-6.63 0-12 5.373-12 12h4Zm8 8c-4.42 0-8-3.582-8-8h-4c0 6.628 5.37 12 12 12v-4Z" fill="#2088DB" mask="url(#a)"/><mask id="b" fill="#fff"><path fill-rule="evenodd" clip-rule="evenodd" d="M468.435 275.174c-.673 0-1.218.545-1.218 1.217v13.392h2.435v-13.392c0-.672-.545-1.217-1.217-1.217Zm9.739 12.174h-8.522v2.435h8.522a1.217 1.217 0 0 0 0-2.435Z"/></mask><path fill-rule="evenodd" clip-rule="evenodd" d="M468.435 275.174c-.673 0-1.218.545-1.218 1.217v13.392h2.435v-13.392c0-.672-.545-1.217-1.217-1.217Zm9.739 12.174h-8.522v2.435h8.522a1.217 1.217 0 0 0 0-2.435Z" fill="#C4C4C4"/><path d="M467.217 289.783h-2v2h2v-2Zm2.435 0v2h2v-2h-2Zm0-2.435v-2h-2v2h2Zm0 2.435h-2v2h2v-2Zm-.435-13.392c0 .433-.35.783-.782.783v-4a3.218 3.218 0 0 0-3.218 3.217h4Zm0 13.392v-13.392h-4v13.392h4Zm.435-2h-2.435v4h2.435v-4Zm-2-11.392v13.392h4v-13.392h-4Zm.783.783a.782.782 0 0 1-.783-.783h4a3.217 3.217 0 0 0-3.217-3.217v4Zm1.217 12.174h8.522v-4h-8.522v4Zm2 .435v-2.435h-4v2.435h4Zm6.522-2h-8.522v4h8.522v-4Zm-.783.782c0-.432.351-.782.783-.782v4a3.217 3.217 0 0 0 3.217-3.218h-4Zm.783.783a.783.783 0 0 1-.783-.783h4a3.217 3.217 0 0 0-3.217-3.217v4Z" fill="#2088DB" mask="url(#b)"/><path d="M447.769 298.021a24.35 24.35 0 0 0 43.558.418 24.347 24.347 0 1 0-45.951-9.223" stroke="#2088DB" stroke-width="2" stroke-linecap="round" stroke-linejoin="round"/><path d="m438 281.261 7.304 9.739 9.739-8.522" stroke="#2088DB" stroke-width="2" stroke-linecap="round" stroke-linejoin="round"/><circle cx="1041.15" cy="107.615" r="4.615" stroke="#2088DB" stroke-width="2"/><circle cx="1029.62" cy="130.692" r="4.615" stroke="#2088DB" stroke-width="2"/><circle cx="1073.46" cy="114.538" r="4.615" stroke="#2088DB" stroke-width="2"/><circle cx="1080.38" cy="133" r="4.615" stroke="#2088DB" stroke-width="2"/><path d="m1065.38 119.154 4.04-2.308M1075.56 131.683l-6.71-1.829M1046.92 115.692l-2.88-4.038M1041.15 128.385l-6.92 1.384" stroke="#2088DB" stroke-width="2" stroke-linecap="round" stroke-linejoin="round"/><mask id="c" maskUnits="userSpaceOnUse" x="1041.46" y="117.154" width="28" height="30" fill="#000"><path fill="#fff" d="M1041.46 117.154h28v30h-28z"/><path fill-rule="evenodd" clip-rule="evenodd" d="M1055 133a6.923 6.923 0 0 0 0-13.846 6.923 6.923 0 0 0 0 13.846Zm0 0c6.37 0 11.54 5.166 11.54 11.538h-23.08c0-6.372 5.17-11.538 11.54-11.538Z"/></mask><path d="M1066.54 144.538v2h2v-2h-2Zm-23.08 0h-2v2h2v-2Zm16.46-18.461A4.92 4.92 0 0 1 1055 131v4a8.92 8.92 0 0 0 8.92-8.923h-4Zm-4.92-4.923a4.92 4.92 0 0 1 4.92 4.923h4a8.92 8.92 0 0 0-8.92-8.923v4Zm-4.92 4.923a4.92 4.92 0 0 1 4.92-4.923v-4a8.92 8.92 0 0 0-8.92 8.923h4ZM1055 131a4.92 4.92 0 0 1-4.92-4.923h-4A8.92 8.92 0 0 0 1055 135v-4Zm13.54 13.538c0-7.477-6.06-13.538-13.54-13.538v4c5.27 0 9.54 4.27 9.54 9.538h4Zm-25.08 2h23.08v-4h-23.08v4ZM1055 131c-7.48 0-13.54 6.061-13.54 13.538h4c0-5.268 4.27-9.538 9.54-9.538v-4Z" fill="#2088DB" mask="url(#c)"/><rect x="323.868" y="127.868" width="55.264" height="50.628" rx="4.45" stroke="#2088DB" stroke-width="4.264"/><path fill="#8E8E8E" stroke="#2088DB" stroke-width="1.159" d="M326.58 144.489h49.841v1.159H326.58zM340.489 146.807h1.159v28.977h-1.159z"/><path stroke="#2088DB" stroke-width="2" stroke-linecap="round" stroke-linejoin="round" d="M42 1h57v37H42z"/><circle cx="53.001" cy="12" r="3.5" stroke="#2088DB" stroke-width="2"/><path d="m56.75 37 7.5-12.5 7.5 6.25 10-15L89.25 37" stroke="#2088DB" stroke-width="2" stroke-linecap="round" stroke-linejoin="round"/><rect x="43.625" y="42.625" width="53.75" height="1.25" rx=".625" fill="#8E8E8E" stroke="#2088DB" stroke-width="1.25"/><rect x="48.625" y="47.625" width="43.75" height="1.25" rx=".625" fill="#8E8E8E" stroke="#2088DB" stroke-width="1.25"/><path d="M1166.07 335.733c.38-.833.6-1.75.6-2.733a6.67 6.67 0 0 0-13.34 0 6.67 6.67 0 0 0 6.67 6.667c.98 0 1.9-.217 2.73-.6l3.94 3.933-3.94 3.933c-.83-.383-1.75-.6-2.73-.6a6.67 6.67 0 0 0-6.67 6.667 6.67 6.67 0 0 0 13.34 0c0-.983-.22-1.9-.6-2.733l3.93-3.934L1181.67 358h5v-1.667l-20.6-20.6Zm-6.07.6a3.331 3.331 0 0 1-3.33-3.333c0-1.85 1.5-3.333 3.33-3.333s3.33 1.483 3.33 3.333-1.5 3.333-3.33 3.333Zm0 20a3.331 3.331 0 0 1-3.33-3.333c0-1.85 1.5-3.333 3.33-3.333s3.33 1.483 3.33 3.333-1.5 3.333-3.33 3.333Zm10-12.5a.82.82 0 0 1-.83-.833.82.82 0 0 1 .83-.833c.47 0 .83.366.83.833a.82.82 0 0 1-.83.833ZM1181.67 328l-10 10 3.33 3.333 11.67-11.666V328h-5ZM897.625 266.641l-16.25-.016a3.259 3.259 0 0 0-3.25 3.25v29.25a3.259 3.259 0 0 0 3.25 3.25h16.25a3.259 3.259 0 0 0 3.25-3.25v-29.25c0-1.788-1.462-3.234-3.25-3.234Zm0 29.234h-16.25v-22.75h16.25v22.75ZM354 320h27v-3h-27c-1.65 0-3 1.35-3 3v16.5h-3v4.5h21v-4.5h-15V320Zm28.5 3h-9c-.825 0-1.5.675-1.5 1.5v15c0 .825.675 1.5 1.5 1.5h9c.825 0 1.5-.675 1.5-1.5v-15c0-.825-.675-1.5-1.5-1.5Zm-1.5 13.5h-6V326h6v10.5ZM14.895 190.25h6.21L18 181.97l-3.105 8.28ZM30 173H6c-1.65 0-3 1.35-3 3v24c0 1.65 1.35 3 3 3h24c1.65 0 3-1.35 3-3v-24c0-1.65-1.35-3-3-3Zm-6.075 24.75-1.71-4.5h-8.46l-1.68 4.5H8.94l7.665-19.5h2.79l7.665 19.5h-3.135Z" fill="#2088DB"/></g></svg>