<svg width="108" height="42" viewBox="0 0 108 42" fill="none" xmlns="http://www.w3.org/2000/svg">
<path fill-rule="evenodd" clip-rule="evenodd" d="M21.1311 23.2582C21.099 23.2582 21.0668 23.2629 21.0355 23.2726C20.9354 23.3035 20.8573 23.3808 20.8269 23.4791L19.2086 28.7129C19.1337 28.9553 18.9152 28.9927 18.85 28.9984C18.7847 29.0044 18.563 29.0052 18.4454 28.7795L11.0465 14.5882C10.9733 14.448 10.9872 14.289 11.0833 14.1629C11.1795 14.0368 11.3311 13.9786 11.4894 14.0071L27.765 16.9497C28.018 16.9955 28.081 17.2023 28.0943 17.2646C28.1076 17.3268 28.1344 17.5411 27.9211 17.6819L23.1323 20.8467C23.0467 20.9033 22.9946 20.997 22.9924 21.0979C22.9903 21.199 23.0384 21.2947 23.1216 21.3546L29.9338 26.2685C30.0047 26.3197 30.0211 26.4155 29.971 26.4866L28.4778 28.6025C28.4431 28.6517 28.3944 28.6655 28.3685 28.6693C28.3427 28.6729 28.292 28.6741 28.244 28.6372L21.3272 23.3245C21.2706 23.281 21.2013 23.2582 21.1311 23.2582Z" fill="#070707"/>
<rect x="39" y="1" width="68.9727" height="25.5455" rx="12" fill="#FFF613"/>
<path d="M48.919 13.8967H47.2491V16.7727H46.3067V9.66333H48.6602C49.461 9.66333 50.0762 9.84562 50.5059 10.2102C50.9389 10.5748 51.1553 11.1054 51.1553 11.802C51.1553 12.2447 51.0349 12.6305 50.794 12.9592C50.5564 13.288 50.2243 13.5338 49.7979 13.6965L51.4678 16.7141V16.7727H50.462L48.919 13.8967ZM47.2491 13.1301H48.6895C49.155 13.1301 49.5245 13.0097 49.7979 12.7688C50.0746 12.5279 50.213 12.2056 50.213 11.802C50.213 11.3625 50.0811 11.0256 49.8174 10.7913C49.557 10.5569 49.1794 10.4381 48.6846 10.4348H47.2491V13.1301ZM54.5245 16.8704C53.8083 16.8704 53.2256 16.636 52.7764 16.1672C52.3272 15.6952 52.1026 15.0653 52.1026 14.2776V14.1116C52.1026 13.5875 52.2019 13.1204 52.4005 12.7102C52.6023 12.2968 52.8822 11.9745 53.2403 11.7434C53.6016 11.509 53.9922 11.3918 54.4122 11.3918C55.099 11.3918 55.6329 11.6181 56.0137 12.0706C56.3946 12.523 56.585 13.1708 56.585 14.0139V14.3899H53.0059C53.0189 14.9107 53.1703 15.3323 53.46 15.6545C53.753 15.9736 54.1241 16.1331 54.5733 16.1331C54.8923 16.1331 55.1625 16.068 55.3839 15.9377C55.6052 15.8075 55.7989 15.635 55.9649 15.4202L56.5167 15.8499C56.074 16.5302 55.4099 16.8704 54.5245 16.8704ZM54.4122 12.134C54.0476 12.134 53.7416 12.2675 53.4942 12.5344C53.2468 12.7981 53.0938 13.1692 53.0352 13.6477H55.6817V13.5793C55.6557 13.1204 55.532 12.7655 55.3106 12.5149C55.0893 12.261 54.7898 12.134 54.4122 12.134ZM62.1075 14.1897C62.1075 14.997 61.9219 15.6464 61.5508 16.1379C61.1797 16.6262 60.6817 16.8704 60.0567 16.8704C59.3894 16.8704 58.8734 16.6344 58.5089 16.1624L58.4649 16.7727H57.6348V9.27271H58.5381V12.0706C58.9027 11.6181 59.4057 11.3918 60.0469 11.3918C60.6882 11.3918 61.1911 11.6344 61.5557 12.1194C61.9236 12.6044 62.1075 13.2685 62.1075 14.1116V14.1897ZM61.2042 14.0872C61.2042 13.4719 61.0853 12.9967 60.8477 12.6614C60.6101 12.3261 60.2683 12.1584 59.8223 12.1584C59.2266 12.1584 58.7986 12.4351 58.5381 12.9885V15.2737C58.8148 15.8271 59.2462 16.1038 59.8321 16.1038C60.265 16.1038 60.6019 15.9361 60.8428 15.6008C61.0837 15.2655 61.2042 14.761 61.2042 14.0872ZM65.4424 16.8704C64.7263 16.8704 64.1436 16.636 63.6944 16.1672C63.2452 15.6952 63.0206 15.0653 63.0206 14.2776V14.1116C63.0206 13.5875 63.1199 13.1204 63.3184 12.7102C63.5202 12.2968 63.8002 11.9745 64.1583 11.7434C64.5196 11.509 64.9102 11.3918 65.3301 11.3918C66.017 11.3918 66.5508 11.6181 66.9317 12.0706C67.3126 12.523 67.503 13.1708 67.503 14.0139V14.3899H63.9239C63.9369 14.9107 64.0883 15.3323 64.378 15.6545C64.671 15.9736 65.0421 16.1331 65.4913 16.1331C65.8103 16.1331 66.0805 16.068 66.3018 15.9377C66.5232 15.8075 66.7169 15.635 66.8829 15.4202L67.4346 15.8499C66.9919 16.5302 66.3279 16.8704 65.4424 16.8704ZM65.3301 12.134C64.9656 12.134 64.6596 12.2675 64.4122 12.5344C64.1648 12.7981 64.0118 13.1692 63.9532 13.6477H66.5997V13.5793C66.5736 13.1204 66.4499 12.7655 66.2286 12.5149C66.0072 12.261 65.7077 12.134 65.3301 12.134ZM69.5342 16.7727H68.6309V9.27271H69.5342V16.7727ZM72.337 9.66333L74.6612 15.4641L76.9854 9.66333H78.2012V16.7727H77.2637V14.0042L77.3516 11.0159L75.0176 16.7727H74.2999L71.9708 11.0305L72.0635 14.0042V16.7727H71.126V9.66333H72.337ZM79.4756 14.0823C79.4756 13.5647 79.5766 13.0992 79.7784 12.6858C79.9835 12.2724 80.2667 11.9534 80.628 11.7288C80.9926 11.5042 81.4076 11.3918 81.8731 11.3918C82.5925 11.3918 83.1736 11.6409 83.6163 12.1389C84.0622 12.637 84.2852 13.2994 84.2852 14.1262V14.1897C84.2852 14.704 84.1859 15.1663 83.9874 15.5764C83.7921 15.9833 83.5105 16.3007 83.1426 16.5286C82.7781 16.7564 82.3581 16.8704 81.8829 16.8704C81.1667 16.8704 80.5857 16.6213 80.1397 16.1233C79.697 15.6252 79.4756 14.9661 79.4756 14.1458V14.0823ZM80.3839 14.1897C80.3839 14.7756 80.5189 15.246 80.7891 15.6008C81.0626 15.9556 81.4271 16.1331 81.8829 16.1331C82.3419 16.1331 82.7064 15.954 82.9766 15.5959C83.2468 15.2346 83.3819 14.7301 83.3819 14.0823C83.3819 13.5028 83.2436 13.0341 82.9669 12.676C82.6934 12.3147 82.3288 12.134 81.8731 12.134C81.4271 12.134 81.0674 12.3114 80.794 12.6663C80.5206 13.0211 80.3839 13.5289 80.3839 14.1897ZM88.6797 16.2502C88.3282 16.6637 87.8122 16.8704 87.1319 16.8704C86.5687 16.8704 86.1391 16.7076 85.8428 16.3821C85.5499 16.0533 85.4018 15.5683 85.3985 14.927V11.4895H86.3018V14.9026C86.3018 15.7034 86.6273 16.1038 87.2784 16.1038C87.9685 16.1038 88.4275 15.8466 88.6553 15.3323V11.4895H89.5587V16.7727H88.6993L88.6797 16.2502ZM94.0118 15.3713C94.0118 15.1272 93.919 14.9384 93.7335 14.8049C93.5512 14.6682 93.2305 14.551 92.7715 14.4534C92.3158 14.3557 91.9529 14.2385 91.6827 14.1018C91.4158 13.9651 91.2172 13.8023 91.087 13.6135C90.96 13.4247 90.8965 13.2001 90.8965 12.9397C90.8965 12.5068 91.0788 12.1405 91.4434 11.8411C91.8113 11.5416 92.28 11.3918 92.8497 11.3918C93.4486 11.3918 93.9337 11.5465 94.3047 11.8557C94.6791 12.165 94.8663 12.5605 94.8663 13.0422H93.9581C93.9581 12.7948 93.8523 12.5816 93.6407 12.4026C93.4324 12.2236 93.1687 12.134 92.8497 12.134C92.5209 12.134 92.2637 12.2056 92.0782 12.3489C91.8926 12.4921 91.7999 12.6793 91.7999 12.9104C91.7999 13.1285 91.8861 13.2929 92.0587 13.4036C92.2312 13.5142 92.5421 13.62 92.9913 13.7209C93.4437 13.8219 93.81 13.9423 94.0899 14.0823C94.3699 14.2222 94.5766 14.3915 94.71 14.5901C94.8467 14.7854 94.9151 15.0247 94.9151 15.3079C94.9151 15.7799 94.7263 16.1591 94.3487 16.4456C93.9711 16.7288 93.4812 16.8704 92.879 16.8704C92.4558 16.8704 92.0814 16.7955 91.7559 16.6458C91.4304 16.496 91.1749 16.2877 90.9893 16.0208C90.807 15.7506 90.7159 15.4592 90.7159 15.1467H91.6192C91.6355 15.4495 91.7559 15.6903 91.9805 15.8694C92.2084 16.0452 92.5079 16.1331 92.879 16.1331C93.2208 16.1331 93.4942 16.0647 93.6993 15.928C93.9076 15.788 94.0118 15.6025 94.0118 15.3713ZM98.2842 16.8704C97.5681 16.8704 96.9854 16.636 96.5362 16.1672C96.087 15.6952 95.8624 15.0653 95.8624 14.2776V14.1116C95.8624 13.5875 95.9616 13.1204 96.1602 12.7102C96.362 12.2968 96.642 11.9745 97.0001 11.7434C97.3614 11.509 97.752 11.3918 98.1719 11.3918C98.8588 11.3918 99.3926 11.6181 99.7735 12.0706C100.154 12.523 100.345 13.1708 100.345 14.0139V14.3899H96.7657C96.7787 14.9107 96.9301 15.3323 97.2198 15.6545C97.5128 15.9736 97.8839 16.1331 98.3331 16.1331C98.6521 16.1331 98.9223 16.068 99.1436 15.9377C99.365 15.8075 99.5587 15.635 99.7247 15.4202L100.276 15.8499C99.8337 16.5302 99.1697 16.8704 98.2842 16.8704ZM98.1719 12.134C97.8074 12.134 97.5014 12.2675 97.254 12.5344C97.0066 12.7981 96.8536 13.1692 96.795 13.6477H99.4415V13.5793C99.4154 13.1204 99.2917 12.7655 99.0704 12.5149C98.849 12.261 98.5495 12.134 98.1719 12.134Z" fill="black"/>
</svg>